# xmcd
#
# Track frame offsets:
#	150
#	14526
#	28064
#	43534
#	57343
#	72506
#	90668
#	107316
#	124748
#	138127
#	156312
#	167629
#	183529
#	194716
#	209994
#	225747
#	239319
#	255012
#	268295
#	289440
#
# Disc length: 4022 seconds
#
# Revision: 0
# Processed by: cddbd v1.5.2PL0 Copyright (c) Steve Scherf et al.
# Submitted via: EasyCDDAExtractor 12.1.0.1
#
DISCID=2d0fb414
DTITLE=Jukka Kuoppamäki
DYEAR=1900
DGENRE=
TTITLE0=Valtatie
TTITLE1=Sininen Ja Valkoinen
TTITLE2=Pieni Mies
TTITLE3=Rakkautta Vain
TTITLE4=Nautilus
TTITLE5=Minä Lähdin - Sinä Jäit
TTITLE6=Näin Sävel Soi
TTITLE7=Paljon Sanomatta Jää
TTITLE8=Kultaa Tai Kunniaa
TTITLE9=Hän
TTITLE10=Väinämöinen
TTITLE11=Jos Alkaa Saan Uudelleen
TTITLE12=Lapsuus
TTITLE13=Valon Liekki
TTITLE14=Kyyneleet
TTITLE15=Sade On Mun Kyyneleeni
TTITLE16=Valkeat Kesäyöt
TTITLE17=Miljoona Hikistä Kilometriä
TTITLE18=Tästä Alkaa Rakkaus
TTITLE19=Kiskot Vievät Etelään
EXTD=
EXTT0=
EXTT1=
EXTT2=
EXTT3=
EXTT4=
EXTT5=
EXTT6=
EXTT7=
EXTT8=
EXTT9=
EXTT10=
EXTT11=
EXTT12=
EXTT13=
EXTT14=
EXTT15=
EXTT16=
EXTT17=
EXTT18=
EXTT19=
PLAYORDER=
